<svg width="20" height="20" viewBox="0 0 20 20" fill="none" xmlns="http://www.w3.org/2000/svg">
<path d="M10.0007 10.2082C9.63398 10.2082 9.26732 10.1165 8.93398 9.9415L3.50898 7.0165C3.01732 6.74984 2.70898 6.22484 2.70898 5.6415C2.70898 5.05817 3.01732 4.53317 3.50898 4.2665L8.93398 1.3415C9.60065 0.983171 10.4007 0.983171 11.059 1.3415L16.484 4.2665C16.9757 4.53317 17.284 5.05817 17.284 5.6415C17.284 6.22484 16.9757 6.74984 16.484 7.0165L11.059 9.9415C10.734 10.1248 10.3673 10.2082 10.0007 10.2082ZM10.0007 2.3165C9.84232 2.3165 9.67565 2.35817 9.52565 2.4415L4.10898 5.35817C3.96732 5.43317 3.95898 5.5915 3.95898 5.6415C3.95898 5.6915 3.96732 5.84984 4.10898 5.9165L9.53398 8.8415C9.83398 8.99984 10.1757 8.99984 10.4757 8.8415L15.9007 5.9165C16.034 5.8415 16.0507 5.68317 16.0507 5.6415C16.0507 5.5915 16.0423 5.43317 15.9007 5.3665L10.4757 2.4415C10.3257 2.35817 10.159 2.3165 10.0007 2.3165Z" fill="#292D32"/>
<path d="M8.14935 18.9333C7.91602 18.9333 7.67435 18.875 7.45768 18.7666L2.40768 16.25C1.56602 15.825 1.04102 14.975 1.04102 14.0333V9.26664C1.04102 8.72497 1.31602 8.2333 1.77435 7.94997C2.24102 7.66664 2.79935 7.64164 3.28268 7.8833L8.33268 10.4C9.17435 10.825 9.69935 11.6666 9.69935 12.6166V17.3833C9.69935 17.925 9.42435 18.4166 8.96602 18.7C8.71602 18.8583 8.43268 18.9333 8.14935 18.9333ZM2.59102 8.96664C2.52435 8.96664 2.46602 8.99164 2.43268 9.0083C2.38268 9.04164 2.29102 9.11664 2.29102 9.26664V14.0333C2.29102 14.5 2.54935 14.925 2.96602 15.1333L8.00768 17.6583C8.14102 17.725 8.24935 17.675 8.29935 17.65C8.34935 17.6166 8.44102 17.5416 8.44102 17.3916V12.625C8.44102 12.1583 8.18268 11.7333 7.76602 11.525L2.72435 8.99997C2.67435 8.97497 2.63268 8.96664 2.59102 8.96664Z" fill="#292D32"/>
<path d="M11.8508 18.9333C11.5674 18.9333 11.2841 18.8583 11.0341 18.7C10.5758 18.4167 10.3008 17.925 10.3008 17.3833V12.6167C10.3008 11.675 10.8258 10.825 11.6674 10.4L16.7091 7.875C17.1924 7.63334 17.7591 7.65834 18.2175 7.94167C18.6758 8.225 18.9508 8.71667 18.9508 9.25834V14.025C18.9508 14.9667 18.4258 15.8167 17.5841 16.2417L12.5424 18.7667C12.3258 18.8833 12.0841 18.9333 11.8508 18.9333ZM17.4091 8.96667C17.3674 8.96667 17.3258 8.975 17.2758 9L12.2341 11.525C11.8174 11.7333 11.5591 12.15 11.5591 12.625V17.3917C11.5591 17.5417 11.6508 17.6167 11.7008 17.65C11.7508 17.6833 11.8591 17.725 11.9924 17.6583L17.0341 15.1333C17.4508 14.925 17.7091 14.5 17.7091 14.0333V9.26667C17.7091 9.11667 17.6174 9.04167 17.5674 9.00834C17.5341 8.99167 17.4758 8.96667 17.4091 8.96667Z" fill="#292D32"/>
</svg>
