<svg width="20" height="20" viewBox="0 0 20 20" fill="none" xmlns="http://www.w3.org/2000/svg">
<path d="M13.75 7.19159C13.4083 7.19159 13.125 6.90826 13.125 6.56659V5.41659C13.125 4.54159 12.75 3.69159 12.1 3.09992C11.4417 2.49992 10.5917 2.22492 9.69167 2.30826C8.19167 2.44992 6.875 3.98326 6.875 5.58326V6.39159C6.875 6.73326 6.59167 7.01659 6.25 7.01659C5.90833 7.01659 5.625 6.73326 5.625 6.39159V5.57492C5.625 3.33326 7.43333 1.26659 9.575 1.05826C10.825 0.94159 12.025 1.33326 12.9417 2.17492C13.85 2.99992 14.375 4.18326 14.375 5.41659V6.56659C14.375 6.90826 14.0917 7.19159 13.75 7.19159Z" fill="#292D32"/>
<path d="M12.4998 18.9582H7.49985C3.64985 18.9582 2.93318 17.1665 2.74985 15.4248L2.12485 10.4332C2.03318 9.53317 1.99985 8.2415 2.87485 7.27484C3.62485 6.4415 4.86652 6.0415 6.66652 6.0415H13.3332C15.1415 6.0415 16.3832 6.44984 17.1248 7.27484C17.9915 8.2415 17.9665 9.53317 17.8748 10.4165L17.2498 15.4248C17.0665 17.1665 16.3498 18.9582 12.4998 18.9582ZM6.66652 7.2915C5.25818 7.2915 4.29152 7.5665 3.79985 8.1165C3.39152 8.5665 3.25818 9.25817 3.36652 10.2915L3.99152 15.2832C4.13318 16.6165 4.49985 17.7165 7.49985 17.7165H12.4998C15.4998 17.7165 15.8665 16.6248 16.0082 15.2998L16.6332 10.2915C16.7415 9.27484 16.6082 8.58317 16.1998 8.12484C15.7082 7.5665 14.7415 7.2915 13.3332 7.2915H6.66652Z" fill="#292D32"/>
<path d="M12.8495 10.9582C12.3828 10.9582 12.0078 10.5832 12.0078 10.1248C12.0078 9.6665 12.3828 9.2915 12.8411 9.2915C13.2995 9.2915 13.6745 9.6665 13.6745 10.1248C13.6745 10.5832 13.3078 10.9582 12.8495 10.9582Z" fill="#292D32"/>
<path d="M7.01745 10.9582C6.55078 10.9582 6.17578 10.5832 6.17578 10.1248C6.17578 9.6665 6.55078 9.2915 7.00911 9.2915C7.46745 9.2915 7.84245 9.6665 7.84245 10.1248C7.84245 10.5832 7.47578 10.9582 7.01745 10.9582Z" fill="#292D32"/>
</svg>
