<svg width="20" height="20" viewBox="0 0 20 20" fill="none" xmlns="http://www.w3.org/2000/svg">
<path d="M4.32409 5.31686C4.16576 5.31686 3.99909 5.2502 3.88242 5.13353C3.64076 4.89186 3.64076 4.49186 3.88242 4.2502L6.90742 1.2252C7.14909 0.983529 7.54909 0.983529 7.79076 1.2252C8.03242 1.46686 8.03242 1.86686 7.79076 2.10853L4.76576 5.13353C4.64076 5.2502 4.48242 5.31686 4.32409 5.31686Z" fill="#292D32"/>
<path d="M15.6753 5.31686C15.5169 5.31686 15.3586 5.25853 15.2336 5.13353L12.2086 2.10853C11.9669 1.86686 11.9669 1.46686 12.2086 1.2252C12.4503 0.983529 12.8503 0.983529 13.0919 1.2252L16.1169 4.2502C16.3586 4.49186 16.3586 4.89186 16.1169 5.13353C16.0003 5.2502 15.8336 5.31686 15.6753 5.31686Z" fill="#292D32"/>
<path d="M16.841 8.83333C16.7827 8.83333 16.7243 8.83333 16.666 8.83333H16.4744H3.33268C2.74935 8.84167 2.08268 8.84167 1.59935 8.35833C1.21602 7.98333 1.04102 7.4 1.04102 6.54167C1.04102 4.25 2.71602 4.25 3.51602 4.25H16.4827C17.2827 4.25 18.9577 4.25 18.9577 6.54167C18.9577 7.40833 18.7827 7.98333 18.3993 8.35833C17.966 8.79167 17.3827 8.83333 16.841 8.83333ZM3.51602 7.58333H16.6743C17.0493 7.59167 17.3994 7.59167 17.516 7.475C17.5744 7.41667 17.6993 7.21667 17.6993 6.54167C17.6993 5.6 17.466 5.5 16.4744 5.5H3.51602C2.52435 5.5 2.29102 5.6 2.29102 6.54167C2.29102 7.21667 2.42435 7.41667 2.47435 7.475C2.59102 7.58333 2.94935 7.58333 3.31602 7.58333H3.51602Z" fill="#292D32"/>
<path d="M8.13281 15.2498C7.79115 15.2498 7.50781 14.9665 7.50781 14.6248V11.6665C7.50781 11.3248 7.79115 11.0415 8.13281 11.0415C8.47448 11.0415 8.75781 11.3248 8.75781 11.6665V14.6248C8.75781 14.9748 8.47448 15.2498 8.13281 15.2498Z" fill="#292D32"/>
<path d="M11.9668 15.2498C11.6251 15.2498 11.3418 14.9665 11.3418 14.6248V11.6665C11.3418 11.3248 11.6251 11.0415 11.9668 11.0415C12.3085 11.0415 12.5918 11.3248 12.5918 11.6665V14.6248C12.5918 14.9748 12.3085 15.2498 11.9668 15.2498Z" fill="#292D32"/>
<path d="M12.4083 18.9581H7.38329C4.39996 18.9581 3.73329 17.1831 3.47496 15.6415L2.29996 8.43313C2.24162 8.09146 2.47496 7.7748 2.81662 7.71646C3.15829 7.65813 3.47496 7.89146 3.53329 8.23313L4.70829 15.4331C4.94996 16.9081 5.44996 17.7081 7.38329 17.7081H12.4083C14.55 17.7081 14.7916 16.9581 15.0666 15.5081L16.4666 8.21646C16.5333 7.87479 16.8583 7.6498 17.2 7.7248C17.5416 7.79146 17.7583 8.11646 17.6916 8.45813L16.2916 15.7498C15.9666 17.4415 15.425 18.9581 12.4083 18.9581Z" fill="#292D32"/>
</svg>
