<svg width="20" height="20" viewBox="0 0 20 20" fill="none" xmlns="http://www.w3.org/2000/svg">
<path d="M6.66602 4.7915C6.32435 4.7915 6.04102 4.50817 6.04102 4.1665V1.6665C6.04102 1.32484 6.32435 1.0415 6.66602 1.0415C7.00768 1.0415 7.29102 1.32484 7.29102 1.6665V4.1665C7.29102 4.50817 7.00768 4.7915 6.66602 4.7915Z" fill="#292D32"/>
<path d="M13.334 4.7915C12.9923 4.7915 12.709 4.50817 12.709 4.1665V1.6665C12.709 1.32484 12.9923 1.0415 13.334 1.0415C13.6757 1.0415 13.959 1.32484 13.959 1.6665V4.1665C13.959 4.50817 13.6757 4.7915 13.334 4.7915Z" fill="#292D32"/>
<path d="M12.5 18.9582H7.5C2.81667 18.9582 1.875 16.7498 1.875 13.1832V8.0415C1.875 4.0915 3.20833 2.48317 6.63333 2.2915H13.3333C13.3417 2.2915 13.3583 2.2915 13.3667 2.2915C16.7917 2.48317 18.125 4.0915 18.125 8.0415V13.1832C18.125 16.7498 17.1833 18.9582 12.5 18.9582ZM6.66667 3.5415C4.33333 3.67484 3.125 4.40817 3.125 8.0415V13.1832C3.125 16.3748 3.73333 17.7082 7.5 17.7082H12.5C16.2667 17.7082 16.875 16.3748 16.875 13.1832V8.0415C16.875 4.4165 15.675 3.67484 13.3167 3.5415H6.66667Z" fill="#292D32"/>
<path d="M17.2923 15.2915H2.70898C2.36732 15.2915 2.08398 15.0082 2.08398 14.6665C2.08398 14.3248 2.36732 14.0415 2.70898 14.0415H17.2923C17.634 14.0415 17.9173 14.3248 17.9173 14.6665C17.9173 15.0082 17.634 15.2915 17.2923 15.2915Z" fill="#292D32"/>
<path d="M9.99935 6.875C8.97435 6.875 8.10768 7.43333 8.10768 8.51667C8.10768 9.03333 8.34935 9.425 8.71602 9.675C8.20768 9.975 7.91602 10.4583 7.91602 11.025C7.91602 12.0583 8.70768 12.7 9.99935 12.7C11.2827 12.7 12.0827 12.0583 12.0827 11.025C12.0827 10.4583 11.791 9.96667 11.2743 9.675C11.6493 9.41667 11.8827 9.03333 11.8827 8.51667C11.8827 7.43333 11.0243 6.875 9.99935 6.875ZM9.99935 9.24167C9.56602 9.24167 9.24935 8.98333 9.24935 8.575C9.24935 8.15833 9.56602 7.91667 9.99935 7.91667C10.4327 7.91667 10.7493 8.15833 10.7493 8.575C10.7493 8.98333 10.4327 9.24167 9.99935 9.24167ZM9.99935 11.6667C9.44935 11.6667 9.04935 11.3917 9.04935 10.8917C9.04935 10.3917 9.44935 10.125 9.99935 10.125C10.5493 10.125 10.9493 10.4 10.9493 10.8917C10.9493 11.3917 10.5493 11.6667 9.99935 11.6667Z" fill="#292D32"/>
</svg>
