<svg width="20" height="20" viewBox="0 0 20 20" fill="none" xmlns="http://www.w3.org/2000/svg">
<path d="M18.3327 7.7085H1.66602C1.32435 7.7085 1.04102 7.42516 1.04102 7.0835C1.04102 6.74183 1.32435 6.4585 1.66602 6.4585H18.3327C18.6743 6.4585 18.9577 6.74183 18.9577 7.0835C18.9577 7.42516 18.6743 7.7085 18.3327 7.7085Z" fill="#292D32"/>
<path d="M6.66667 14.375H5C4.65833 14.375 4.375 14.0917 4.375 13.75C4.375 13.4083 4.65833 13.125 5 13.125H6.66667C7.00833 13.125 7.29167 13.4083 7.29167 13.75C7.29167 14.0917 7.00833 14.375 6.66667 14.375Z" fill="#292D32"/>
<path d="M12.0833 14.375H8.75C8.40833 14.375 8.125 14.0917 8.125 13.75C8.125 13.4083 8.40833 13.125 8.75 13.125H12.0833C12.425 13.125 12.7083 13.4083 12.7083 13.75C12.7083 14.0917 12.425 14.375 12.0833 14.375Z" fill="#292D32"/>
<path d="M14.6327 17.7082H5.36602C2.04935 17.7082 1.04102 16.7082 1.04102 13.4248V6.57484C1.04102 3.2915 2.04935 2.2915 5.36602 2.2915H14.6243C17.941 2.2915 18.9493 3.2915 18.9493 6.57484V13.4165C18.9577 16.7082 17.9493 17.7082 14.6327 17.7082ZM5.36602 3.5415C2.74935 3.5415 2.29102 3.9915 2.29102 6.57484V13.4165C2.29102 15.9998 2.74935 16.4498 5.36602 16.4498H14.6243C17.241 16.4498 17.6993 15.9998 17.6993 13.4165V6.57484C17.6993 3.9915 17.241 3.5415 14.6243 3.5415H5.36602Z" fill="#292D32"/>
</svg>
