<svg width="20" height="20" viewBox="0 0 20 20" fill="none" xmlns="http://www.w3.org/2000/svg">
<path d="M9.99935 18.9582C5.05768 18.9582 1.04102 14.9415 1.04102 9.99984C1.04102 8.03317 1.66602 6.1665 2.84935 4.59984C3.05768 4.32484 3.44935 4.27484 3.72435 4.48317C3.99935 4.6915 4.05768 5.08317 3.84935 5.35817C2.83268 6.69984 2.29102 8.30817 2.29102 9.99984C2.29102 14.2498 5.74935 17.7082 9.99935 17.7082C14.2493 17.7082 17.7077 14.2498 17.7077 9.99984C17.7077 5.74984 14.2493 2.2915 9.99935 2.2915C9.65768 2.2915 9.37435 2.00817 9.37435 1.6665C9.37435 1.32484 9.65768 1.0415 9.99935 1.0415C14.941 1.0415 18.9577 5.05817 18.9577 9.99984C18.9577 14.9415 14.941 18.9582 9.99935 18.9582Z" fill="#292D32"/>
<path d="M9.99935 16.4582C6.44102 16.4582 3.54102 13.5582 3.54102 9.99984C3.54102 9.65817 3.82435 9.37484 4.16602 9.37484C4.50768 9.37484 4.79102 9.65817 4.79102 9.99984C4.79102 12.8748 7.12435 15.2082 9.99935 15.2082C12.8743 15.2082 15.2077 12.8748 15.2077 9.99984C15.2077 7.12484 12.8743 4.7915 9.99935 4.7915C9.65768 4.7915 9.37435 4.50817 9.37435 4.1665C9.37435 3.82484 9.65768 3.5415 9.99935 3.5415C13.5577 3.5415 16.4577 6.4415 16.4577 9.99984C16.4577 13.5582 13.5577 16.4582 9.99935 16.4582Z" fill="#292D32"/>
<path d="M10 13.9582C9.65833 13.9582 9.375 13.6748 9.375 13.3332C9.375 12.9915 9.65833 12.7082 10 12.7082C11.4917 12.7082 12.7083 11.4915 12.7083 9.99984C12.7083 8.50817 11.4917 7.2915 10 7.2915C9.65833 7.2915 9.375 7.00817 9.375 6.6665C9.375 6.32484 9.65833 6.0415 10 6.0415C12.1833 6.0415 13.9583 7.8165 13.9583 9.99984C13.9583 12.1832 12.1833 13.9582 10 13.9582Z" fill="#292D32"/>
</svg>
