<svg width="20" height="20" viewBox="0 0 20 20" fill="none" xmlns="http://www.w3.org/2000/svg">
<path d="M12.4993 18.9582H7.49935C2.97435 18.9582 1.04102 17.0248 1.04102 12.4998V7.49984C1.04102 2.97484 2.97435 1.0415 7.49935 1.0415H12.4993C17.0243 1.0415 18.9577 2.97484 18.9577 7.49984V12.4998C18.9577 17.0248 17.0243 18.9582 12.4993 18.9582ZM7.49935 2.2915C3.65768 2.2915 2.29102 3.65817 2.29102 7.49984V12.4998C2.29102 16.3415 3.65768 17.7082 7.49935 17.7082H12.4993C16.341 17.7082 17.7077 16.3415 17.7077 12.4998V7.49984C17.7077 3.65817 16.341 2.2915 12.4993 2.2915H7.49935Z" fill="#292D32"/>
<path d="M11.4665 14.7918H8.52487C7.6082 14.7918 6.8832 14.3418 6.47487 13.5252L5.7332 12.0335C5.5582 11.6752 5.19987 11.4585 4.79987 11.4585H1.6582C1.31654 11.4585 1.0332 11.1752 1.0332 10.8335C1.0332 10.4918 1.32487 10.2085 1.66654 10.2085H4.79987C5.67487 10.2085 6.4582 10.6918 6.84987 11.4752L7.59154 12.9668C7.7832 13.3502 8.09154 13.5418 8.52487 13.5418H11.4665C11.8665 13.5418 12.2249 13.3252 12.3999 12.9668L13.1415 11.4752C13.5332 10.6918 14.3165 10.2085 15.1915 10.2085H18.3082C18.6499 10.2085 18.9332 10.4918 18.9332 10.8335C18.9332 11.1752 18.6499 11.4585 18.3082 11.4585H15.1915C14.7915 11.4585 14.4332 11.6752 14.2582 12.0335L13.5165 13.5252C13.1249 14.3085 12.3415 14.7918 11.4665 14.7918Z" fill="#292D32"/>
</svg>
