<svg width="20" height="20" viewBox="0 0 20 20" fill="none" xmlns="http://www.w3.org/2000/svg">
<path d="M10.0007 18.9669C9.09232 18.9669 8.19232 18.7002 7.48398 18.1752L3.90065 15.5002C2.95065 14.7919 2.20898 13.3085 2.20898 12.1335V5.93353C2.20898 4.6502 3.15065 3.28353 4.35898 2.83353L8.51732 1.2752C9.34232 0.966862 10.6423 0.966862 11.4673 1.2752L15.6257 2.83353C16.834 3.28353 17.7756 4.6502 17.7756 5.93353V12.1252C17.7756 13.3085 17.034 14.7835 16.084 15.4919L12.5007 18.1669C11.809 18.7002 10.909 18.9669 10.0007 18.9669ZM8.95898 2.4502L4.80065 4.00853C4.09232 4.2752 3.46732 5.1752 3.46732 5.94186V12.1335C3.46732 12.9252 4.02565 14.0335 4.65065 14.5002L8.23398 17.1752C9.19232 17.8919 10.809 17.8919 11.7756 17.1752L15.359 14.5002C15.9923 14.0252 16.5423 12.9252 16.5423 12.1335V5.93353C16.5423 5.1752 15.9173 4.2752 15.209 4.0002L11.0507 2.44186C10.484 2.24186 9.51732 2.24186 8.95898 2.4502Z" fill="#292D32"/>
<path d="M8.88255 11.8581C8.72422 11.8581 8.56589 11.7998 8.44089 11.6748L7.09922 10.3331C6.85755 10.0914 6.85755 9.69144 7.09922 9.44977C7.34089 9.20811 7.74088 9.20811 7.98255 9.44977L8.88255 10.3498L12.0242 7.20811C12.2659 6.96644 12.6659 6.96644 12.9076 7.20811C13.1492 7.44977 13.1492 7.84977 12.9076 8.09144L9.32422 11.6748C9.19922 11.7998 9.04088 11.8581 8.88255 11.8581Z" fill="#292D32"/>
</svg>
