<svg width="20" height="20" viewBox="0 0 20 20" fill="none" xmlns="http://www.w3.org/2000/svg">
<path d="M6.66602 4.7915C6.32435 4.7915 6.04102 4.50817 6.04102 4.1665V1.6665C6.04102 1.32484 6.32435 1.0415 6.66602 1.0415C7.00768 1.0415 7.29102 1.32484 7.29102 1.6665V4.1665C7.29102 4.50817 7.00768 4.7915 6.66602 4.7915Z" fill="#292D32"/>
<path d="M13.334 4.7915C12.9923 4.7915 12.709 4.50817 12.709 4.1665V1.6665C12.709 1.32484 12.9923 1.0415 13.334 1.0415C13.6757 1.0415 13.959 1.32484 13.959 1.6665V4.1665C13.959 4.50817 13.6757 4.7915 13.334 4.7915Z" fill="#292D32"/>
<path d="M12.5007 9.7915H5.83398C5.49232 9.7915 5.20898 9.50817 5.20898 9.1665C5.20898 8.82484 5.49232 8.5415 5.83398 8.5415H12.5007C12.8423 8.5415 13.1257 8.82484 13.1257 9.1665C13.1257 9.50817 12.8423 9.7915 12.5007 9.7915Z" fill="#292D32"/>
<path d="M10.0007 13.125H5.83398C5.49232 13.125 5.20898 12.8417 5.20898 12.5C5.20898 12.1583 5.49232 11.875 5.83398 11.875H10.0007C10.3423 11.875 10.6257 12.1583 10.6257 12.5C10.6257 12.8417 10.3423 13.125 10.0007 13.125Z" fill="#292D32"/>
<path d="M12.5 18.9582H7.5C2.81667 18.9582 1.875 16.7498 1.875 13.1832V8.0415C1.875 4.0915 3.20833 2.48317 6.63333 2.2915H13.3333C16.7917 2.48317 18.125 4.0915 18.125 8.0415V13.3332C18.125 13.6748 17.8417 13.9582 17.5 13.9582C17.1583 13.9582 16.875 13.6748 16.875 13.3332V8.0415C16.875 4.40817 15.6667 3.67484 13.3 3.5415H6.66667C4.33333 3.67484 3.125 4.40817 3.125 8.0415V13.1832C3.125 16.3748 3.73333 17.7082 7.5 17.7082H12.5C12.8417 17.7082 13.125 17.9915 13.125 18.3332C13.125 18.6748 12.8417 18.9582 12.5 18.9582Z" fill="#292D32"/>
<path d="M12.5 18.9585C12.4167 18.9585 12.3417 18.9418 12.2583 18.9085C12.025 18.8085 11.875 18.5835 11.875 18.3335V15.8335C11.875 13.8168 12.9833 12.7085 15 12.7085H17.5C17.75 12.7085 17.9833 12.8585 18.075 13.0918C18.175 13.3252 18.1167 13.5918 17.9417 13.7752L12.9417 18.7752C12.825 18.8918 12.6667 18.9585 12.5 18.9585ZM15 13.9585C13.6833 13.9585 13.125 14.5168 13.125 15.8335V16.8252L15.9917 13.9585H15Z" fill="#292D32"/>
</svg>
